<svg width="48" height="48" viewBox="0 0 48 48" fill="none" xmlns="http://www.w3.org/2000/svg">
<g filter="url(#filter0_d_1149_1804)">
<path d="M40 22C40 12.0589 31.9411 4 22 4C12.0589 4 4 12.0589 4 22C4 30.9842 10.5823 38.431 19.1875 39.7813V27.2031H14.6172V22H19.1875V18.0344C19.1875 13.5231 21.8748 11.0312 25.9864 11.0312C27.9551 11.0312 30.0156 11.3828 30.0156 11.3828V15.8125H27.7459C25.51 15.8125 24.8125 17.2001 24.8125 18.625V22H29.8047L29.0066 27.2031H24.8125V39.7813C33.4177 38.431 40 30.9842 40 22Z" fill="#D08742"/>
</g>
<defs>
<filter id="filter0_d_1149_1804" x="0" y="0" width="48" height="47.7812" filterUnits="userSpaceOnUse" color-interpolation-filters="sRGB">
<feFlood flood-opacity="0" result="BackgroundImageFix"/>
<feColorMatrix in="SourceAlpha" type="matrix" values="0 0 0 0 0 0 0 0 0 0 0 0 0 0 0 0 0 0 127 0" result="hardAlpha"/>
<feOffset dx="2" dy="2"/>
<feGaussianBlur stdDeviation="3"/>
<feComposite in2="hardAlpha" operator="out"/>
<feColorMatrix type="matrix" values="0 0 0 0 0.12549 0 0 0 0 0.12549 0 0 0 0 0.12549 0 0 0 0.25 0"/>
<feBlend mode="normal" in2="BackgroundImageFix" result="effect1_dropShadow_1149_1804"/>
<feBlend mode="normal" in="SourceGraphic" in2="effect1_dropShadow_1149_1804" result="shape"/>
</filter>
</defs>
</svg>
