<svg width="444" height="32" viewBox="0 0 444 32" fill="none" xmlns="http://www.w3.org/2000/svg">
<path d="M122.91 0.166464C114.913 1.06928 111.084 4.59591 111.591 10.5771C111.844 13.6523 112.998 15.6272 115.279 16.925C117.335 18.1382 119.447 18.5049 125.726 18.7871C132.709 19.0974 134.145 19.2385 135.187 19.8027C137.468 20.9595 136.876 23.5269 134.032 24.9375C132.54 25.671 132.287 25.6993 128.119 25.6993C124.6 25.6993 123.473 25.5864 122.262 25.1632C120.657 24.6272 118.827 23.2165 118.827 22.5676C118.827 22.2573 118.067 22.1726 114.857 22.1726H110.858L111.056 23.3294C111.703 27.3638 114.885 30.3262 119.728 31.3983C122.713 32.0472 131.16 32.019 134.173 31.3701C139.974 30.1287 143.24 27.1946 143.831 22.7651C144.338 19.041 143.212 15.994 140.79 14.4987C138.538 13.1162 136.764 12.8341 128.964 12.6084C120.01 12.3545 119.109 12.0442 119.109 9.42034C119.109 8.09433 119.7 7.41722 121.418 6.62725C122.797 6.00656 123.276 5.95014 127.415 5.95014C132.568 5.95014 133.835 6.31691 135.328 8.17897C136.116 9.13821 136.229 9.19464 137.862 9.19464C140.762 9.19464 143.043 8.88429 143.043 8.4611C143.043 7.58649 141.832 4.96268 140.959 3.94701C139.72 2.50815 137.102 1.09749 134.68 0.561447C132.287 0.0536118 125.895 -0.172092 122.91 0.166464Z" fill="#202020"/>
<path d="M278.623 0.166143C273.048 1.01254 268.233 3.80563 265.783 7.58617C264.009 10.2946 263.418 12.4952 263.446 16.1065C263.474 19.4639 263.953 21.2977 265.417 23.8087C269.219 30.2695 279.102 33.514 288.282 31.3133C293.012 30.1566 297.686 26.8839 299.545 23.3855C301.882 18.9278 301.882 13.0031 299.545 8.54542C297.63 4.96236 292.9 1.68965 288.056 0.58934C285.522 0.0250778 280.961 -0.172413 278.623 0.166143ZM287.859 7.19119C292.421 8.96861 294.617 12.8902 293.772 17.8275C292.956 22.5955 289.38 25.2193 283.27 25.4732C278.314 25.6989 275.216 24.6551 272.907 22.003C271.471 20.3949 270.824 18.5046 270.824 15.9654C270.824 13.4263 271.471 11.536 272.879 9.92785C275.273 7.2194 277.835 6.3448 282.847 6.48586C285.522 6.54229 286.564 6.71157 287.859 7.19119Z" fill="#202020"/>
<path d="M0 1.26607C0 1.49177 9.57374 27.8992 10.4466 30.128L10.7564 30.918H14.9238H19.063L22.3857 21.5795C24.2159 16.4729 25.8209 12.2127 25.9336 12.1563C26.018 12.0717 27.6794 16.2754 29.5941 21.4666L33.0857 30.918H37.3376H41.6176L42.0681 29.7048C42.3216 29.0559 44.7995 22.3694 47.5308 14.8365L52.5429 1.15322L48.629 1.06857C46.4608 1.04036 44.6305 1.04036 44.5742 1.125C44.5179 1.18143 42.941 5.52624 41.0826 10.8021C39.2242 16.0497 37.591 20.6484 37.4221 21.0434C37.1405 21.6641 36.8871 21.0998 34.8878 15.6829C33.677 12.3538 31.9594 7.67043 31.0865 5.30053L29.5096 1.01215H26.0462H22.5828L22.3012 1.80211C20.2456 7.69864 15.3743 21.2409 15.2335 21.382C15.1209 21.4948 13.4595 16.9807 11.5166 11.3663L7.96873 1.15322L3.99844 1.06857C1.66133 1.04036 0 1.09679 0 1.26607Z" fill="#202020"/>
<path d="M65.8896 15.9651V30.918H81.7989H97.7083V27.5324V24.1468H85.4595H73.2107V21.4666V18.7864L83.7137 18.7299L94.1885 18.6453L94.273 15.5983L94.3574 12.5795H83.77H73.2107V9.75819V6.93689H85.1779H97.1451V3.97452V1.01215H81.5174H65.8896V15.9651Z" fill="#202020"/>
<path d="M156.277 4.25665V7.50115H162.331H168.385V19.2096V30.918H171.905H175.425L175.481 19.266L175.566 7.64221L181.563 7.55757L187.533 7.50115V4.25665V1.01215H171.905H156.277V4.25665Z" fill="#202020"/>
<path d="M199.95 2.47923C200.26 3.29741 202.709 10.0121 205.384 17.3757L210.284 30.7769L214.451 30.8615L218.647 30.918L222.026 21.4666C223.884 16.2754 225.461 12.0152 225.546 12.0152C225.63 12.0152 227.263 16.2754 229.178 21.4666L232.67 30.918H237.006C239.371 30.918 241.314 30.8615 241.314 30.8051C241.314 30.7487 243.736 24.1186 246.664 16.1061C249.621 8.09362 252.014 1.40713 252.014 1.26607C252.014 1.09679 250.353 1.04036 248.044 1.06857L244.074 1.15322L240.497 11.2253C238.555 16.755 236.865 21.3537 236.781 21.4384C236.696 21.523 234.95 16.9525 232.867 11.3099L229.093 1.01215H225.658C222.645 1.01215 222.195 1.06857 222.026 1.49177C221.913 1.7739 220.308 6.25978 218.45 11.451C216.591 16.6422 214.986 21.0716 214.874 21.2691C214.733 21.523 213.353 17.8835 211.326 11.9588C209.495 6.65476 207.89 1.99961 207.778 1.63284C207.553 1.04036 207.44 1.01215 203.47 1.01215H199.387L199.95 2.47923Z" fill="#202020"/>
<path d="M316.778 15.9651V30.918H320.298H323.818V25.2754V19.6328H328.267H332.716L336.658 25.2754L340.572 30.918H345.443C349.273 30.918 350.286 30.8333 350.117 30.5512C350.005 30.3819 348.062 27.8145 345.837 24.9086C343.613 22.0026 341.811 19.5481 341.867 19.5199C341.923 19.4635 342.656 19.266 343.472 19.0967C347.696 18.2221 350.202 15.5419 350.709 11.4228C350.934 9.70177 350.512 7.07795 349.808 5.6673C349.188 4.42593 347.78 3.01527 346.485 2.36637C344.035 1.06857 343.247 1.01215 329.675 1.01215H316.778V15.9651ZM340.853 7.50115C343.726 8.15005 344.092 11.5638 341.36 12.6077C340.994 12.7488 336.883 12.8616 332.237 12.8616H323.818V10.0403V7.21902H331.787C336.151 7.21902 340.234 7.36008 340.853 7.50115Z" fill="#202020"/>
<path d="M365.773 15.9651V30.918H380.275H394.776V27.3913V23.8647L383.879 23.8083L372.954 23.7236L372.869 12.3538L372.813 1.01215H369.293H365.773V15.9651Z" fill="#202020"/>
<path d="M408.01 15.9652V30.9463L419.357 30.8616C431.916 30.7488 432.169 30.6924 436.14 28.7739C441.405 26.1783 444.474 20.4793 443.939 14.357C443.32 7.50126 440.054 3.72071 433.127 1.80222C431.099 1.23796 430.142 1.18154 419.498 1.06869L408.01 0.984045V15.9652ZM430.593 7.72696C433.155 8.57335 434.704 9.81473 435.745 11.8743C437.322 14.9777 436.703 19.2097 434.309 21.3256C431.747 23.5827 429.016 24.1469 420.962 24.1469H415.049V15.5138V6.88057L421.892 6.99342C427.974 7.10627 428.903 7.19091 430.593 7.72696Z" fill="#202020"/>
</svg>
