<svg width="48" height="48" viewBox="0 0 48 48" fill="none" xmlns="http://www.w3.org/2000/svg">
<g filter="url(#filter0_d_1149_1933)">
<path fill-rule="evenodd" clip-rule="evenodd" d="M22 7.24141C26.8094 7.24141 27.3789 7.2625 29.2703 7.34687C31.0281 7.42422 31.9773 7.71953 32.6102 7.96563C33.4469 8.28906 34.0516 8.68281 34.6773 9.30859C35.3102 9.94141 35.6969 10.5391 36.0203 11.3758C36.2664 12.0086 36.5617 12.9648 36.6391 14.7156C36.7234 16.6141 36.7445 17.1836 36.7445 21.9859C36.7445 26.7953 36.7234 27.3648 36.6391 29.2563C36.5617 31.0141 36.2664 31.9633 36.0203 32.5961C35.6969 33.4328 35.3031 34.0375 34.6773 34.6633C34.0445 35.2961 33.4469 35.6828 32.6102 36.0062C31.9773 36.2523 31.0211 36.5477 29.2703 36.625C27.3719 36.7094 26.8023 36.7305 22 36.7305C17.1906 36.7305 16.6211 36.7094 14.7297 36.625C12.9719 36.5477 12.0227 36.2523 11.3898 36.0062C10.5531 35.6828 9.94844 35.2891 9.32266 34.6633C8.68984 34.0305 8.30312 33.4328 7.97969 32.5961C7.73359 31.9633 7.43828 31.007 7.36094 29.2563C7.27656 27.3578 7.25547 26.7883 7.25547 21.9859C7.25547 17.1766 7.27656 16.607 7.36094 14.7156C7.43828 12.9578 7.73359 12.0086 7.97969 11.3758C8.30312 10.5391 8.69688 9.93437 9.32266 9.30859C9.95547 8.67578 10.5531 8.28906 11.3898 7.96563C12.0227 7.71953 12.9789 7.42422 14.7297 7.34687C16.6211 7.2625 17.1906 7.24141 22 7.24141ZM22 4C17.1133 4 16.5016 4.02109 14.582 4.10547C12.6695 4.18984 11.3547 4.49922 10.2156 4.94219C9.02734 5.40625 8.02188 6.01797 7.02344 7.02344C6.01797 8.02187 5.40625 9.02734 4.94219 10.2086C4.49922 11.3547 4.18984 12.6625 4.10547 14.575C4.02109 16.5016 4 17.1133 4 22C4 26.8867 4.02109 27.4984 4.10547 29.418C4.18984 31.3305 4.49922 32.6453 4.94219 33.7844C5.40625 34.9727 6.01797 35.9781 7.02344 36.9766C8.02188 37.975 9.02734 38.5937 10.2086 39.0508C11.3547 39.4937 12.6625 39.8031 14.575 39.8875C16.4945 39.9719 17.1062 39.993 21.993 39.993C26.8797 39.993 27.4914 39.9719 29.4109 39.8875C31.3234 39.8031 32.6383 39.4937 33.7773 39.0508C34.9586 38.5937 35.9641 37.975 36.9625 36.9766C37.9609 35.9781 38.5797 34.9727 39.0367 33.7914C39.4797 32.6453 39.7891 31.3375 39.8734 29.425C39.9578 27.5055 39.9789 26.8937 39.9789 22.007C39.9789 17.1203 39.9578 16.5086 39.8734 14.5891C39.7891 12.6766 39.4797 11.3617 39.0367 10.2227C38.5938 9.02734 37.982 8.02187 36.9766 7.02344C35.9781 6.025 34.9727 5.40625 33.7914 4.94922C32.6453 4.50625 31.3375 4.19687 29.425 4.1125C27.4984 4.02109 26.8867 4 22 4ZM22 12.7539C16.8953 12.7539 12.7539 16.8953 12.7539 22C12.7539 27.1047 16.8953 31.2461 22 31.2461C27.1047 31.2461 31.2461 27.1047 31.2461 22C31.2461 16.8953 27.1047 12.7539 22 12.7539ZM22 27.9976C18.6883 27.9976 16.0023 25.3117 16.0023 22C16.0023 18.6883 18.6883 16.0023 22 16.0023C25.3117 16.0023 27.9977 18.6883 27.9977 22C27.9977 25.3117 25.3117 27.9976 22 27.9976ZM31.6117 14.5468C32.8 14.5468 33.7703 13.5835 33.7703 12.3882C33.7703 11.1999 32.8 10.2296 31.6117 10.2296C30.4234 10.2296 29.4531 11.1929 29.4531 12.3882C29.4531 13.5765 30.4164 14.5468 31.6117 14.5468Z" fill="#D08742"/>
</g>
<defs>
<filter id="filter0_d_1149_1933" x="0" y="0" width="47.9785" height="47.9929" filterUnits="userSpaceOnUse" color-interpolation-filters="sRGB">
<feFlood flood-opacity="0" result="BackgroundImageFix"/>
<feColorMatrix in="SourceAlpha" type="matrix" values="0 0 0 0 0 0 0 0 0 0 0 0 0 0 0 0 0 0 127 0" result="hardAlpha"/>
<feOffset dx="2" dy="2"/>
<feGaussianBlur stdDeviation="3"/>
<feComposite in2="hardAlpha" operator="out"/>
<feColorMatrix type="matrix" values="0 0 0 0 0.12549 0 0 0 0 0.12549 0 0 0 0 0.12549 0 0 0 0.25 0"/>
<feBlend mode="normal" in2="BackgroundImageFix" result="effect1_dropShadow_1149_1933"/>
<feBlend mode="normal" in="SourceGraphic" in2="effect1_dropShadow_1149_1933" result="shape"/>
</filter>
</defs>
</svg>
