<svg width="400" height="440" viewBox="0 0 400 440" fill="none" xmlns="http://www.w3.org/2000/svg">
<path d="M173.943 1.52234C132.554 8.30911 93.3008 27.7379 63.2601 56.6148C29.481 88.8187 12.9253 122.619 2.64467 179.841C-1.09373 200.734 -0.826699 245.446 3.17873 265.407C15.9961 329.283 53.5136 383.71 110.925 422.035C118.936 427.358 125.344 430.685 127.48 430.685C130.551 430.685 136.159 425.096 162.061 396.086C179.15 376.923 193.036 360.555 193.036 359.357C193.036 358.293 187.028 351.373 179.818 343.788C160.725 324.359 143.903 302.535 145.238 299.075C145.638 297.877 152.181 291.756 179.951 266.871L191.701 256.358H199.311C206.921 256.358 207.589 256.625 231.087 271.795C244.305 280.312 255.654 287.764 256.322 288.429C258.992 290.958 239.499 316.242 219.872 335.537C207.589 347.647 205.586 351.373 209.725 354.833C213.464 357.894 218.137 354.833 233.891 338.465C259.125 312.382 275.147 287.764 283.959 261.548C287.43 251.169 288.232 246.245 288.766 232.937C289.7 211.38 291.169 212.577 262.73 212.178C234.692 211.779 233.09 211.912 231.488 213.509C229.752 215.239 228.551 237.861 230.019 239.857C231.621 242.12 250.046 251.035 252.984 251.035C256.188 251.035 258.858 246.644 257.79 243.184C257.39 241.986 253.518 239.192 248.978 237.063C241.502 233.47 240.967 232.937 241.368 229.078L241.769 225.086L259.526 224.687L277.15 224.288V231.341C277.15 235.2 276.215 242.253 275.147 247.043C273.011 256.625 265 277.65 263.531 277.65C263.131 277.65 252.583 271.13 240.166 263.145L217.736 248.773V226.417V203.927L243.104 188.225L268.338 172.522L273.144 181.571C278.351 191.418 282.09 193.548 285.561 188.491C287.43 185.829 287.43 184.898 285.695 179.974C281.956 169.727 272.61 155.888 262.463 145.774C254.319 137.79 249.646 134.463 239.632 129.672C224.412 122.22 217.87 120.623 199.845 119.426L185.96 118.627L183.556 111.707C181.287 104.788 181.287 104.788 184.09 103.856C190.099 101.727 210.927 102.924 221.474 105.852C262.597 117.03 292.504 147.371 303.853 189.156C307.458 202.464 308.659 224.421 306.656 237.728C300.648 276.453 276.883 318.105 237.897 358.027C230.82 365.346 225.079 372.132 225.079 373.33C225.079 374.528 234.959 388.234 247.109 403.671C265 426.56 269.807 432.016 272.477 432.016C280.221 432.016 320.141 396.485 340.302 371.467C366.471 339.13 384.362 304.132 393.975 266.073C404.656 223.489 400.917 166.667 384.495 125.68C360.062 64.4662 303.853 17.225 238.698 3.51843C221.474 -0.207611 190.099 -1.13913 173.943 1.52234ZM233.891 14.6966C267.537 21.4834 301.449 39.1822 326.951 63.4016C357.659 92.4117 374.482 122.752 383.561 165.735C386.765 180.906 387.165 185.297 387.165 211.113C387.299 236.131 385.697 253.697 383.427 255.959C383.16 256.358 380.089 256.092 376.618 255.56L370.343 254.628L371.544 245.18C373.547 227.614 372.746 187.692 370.076 175.183C362.465 139.919 345.242 107.848 319.607 81.3665C285.962 46.3682 248.044 30.1332 200.379 30.1332C172.208 30.1332 148.709 35.4561 125.344 47.2997C97.7068 61.1393 70.2029 87.0887 53.6471 114.502C48.3065 123.418 47.906 124.882 50.9768 127.809C55.2493 132.201 57.786 130.338 66.9985 116.232C78.8813 98.2669 102.38 74.979 118.802 64.8654C132.02 56.7479 147.641 50.0942 163.262 45.9689C179.551 41.5775 212.128 40.9121 230.019 44.6382C261.796 51.1588 289.033 66.5954 312.131 91.214C336.964 117.43 353.653 150.831 359.395 185.164C362.198 202.73 361.264 235.466 357.392 253.963C353.386 272.194 346.31 291.889 336.964 309.721C330.155 323.028 329.22 325.69 330.422 328.085C332.558 332.077 337.765 331.678 341.237 327.154C346.043 321.165 358.059 295.216 362.599 281.11C364.869 273.791 367.005 267.404 367.272 266.871C368.206 265.407 379.956 268.601 379.956 270.464C379.956 273.924 374.081 290.824 368.474 303.2C356.324 330.88 337.632 358.027 314.267 382.246C301.449 395.553 276.616 417.378 274.346 417.378C273.411 417.378 243.237 379.585 240.7 375.326C240.3 374.661 244.172 369.471 249.245 364.015C296.509 314.112 319.874 265.674 319.874 217.767V203.528L324.013 202.597C333.626 200.734 333.226 200.201 333.226 216.969C333.226 246.245 326.15 274.989 311.863 303.6C301.583 324.093 289.166 341.392 272.877 357.627C265.668 364.813 259.793 371.733 259.793 373.064C259.793 375.725 274.212 394.489 277.817 396.485C282.891 399.28 309.861 375.592 321.61 358.16C328.152 348.445 329.22 344.32 325.883 341.526C322.278 338.598 318.005 341.126 312.531 349.776C306.923 358.825 284.894 381.448 281.823 381.448C280.888 381.448 278.752 379.718 277.15 377.455L274.346 373.463L281.422 366.543C310.929 337.666 332.825 297.611 341.37 256.758C347.111 229.344 346.844 192.35 340.569 170.526C336.03 154.557 326.016 134.33 316.269 121.289C305.722 107.183 286.629 89.351 271.409 79.3704C254.853 68.4584 254.319 68.5915 245.774 85.0926C240.033 96.1377 238.698 98.0007 236.428 97.3354C216.801 91.7463 212.93 91.0809 198.376 90.9478C186.227 90.9478 181.687 91.4801 176.48 93.4762C166.6 97.3354 166.333 98.5331 171.54 113.97C174.077 121.289 176.881 128.342 177.815 129.672C179.284 131.668 181.954 131.935 196.641 132.068C211.594 132.068 214.932 132.467 223.611 135.661C228.951 137.524 236.829 141.383 240.834 144.044C248.578 149.101 261.128 160.146 261.128 161.876C261.128 162.808 212.93 192.882 208.924 194.479C204.785 196.076 204.652 192.35 208.791 188.092C214.265 182.236 215.733 178.91 215.733 172.522C215.733 161.344 209.058 153.492 199.712 153.492C190.366 153.492 183.69 161.344 183.69 172.522C183.69 178.776 185.96 183.833 190.9 188.358C194.638 191.951 195.306 193.814 192.769 193.814C191.033 193.814 144.57 158.416 143.903 156.686C143.769 156.154 146.573 153.093 150.311 150.033C157.655 143.911 158.99 139.121 154.317 136.592C150.311 134.463 147.508 135.794 138.696 144.31C128.549 154.291 120.538 166.401 115.331 180.107C111.325 190.753 111.058 191.152 106.786 191.152C104.382 191.152 101.445 191.552 100.11 192.084C98.1073 192.749 97.9738 192.35 98.7749 187.692C100.377 179.309 108.388 160.945 115.197 150.033C118.668 144.443 126.145 135.128 131.886 129.14C137.628 123.152 142.3 117.43 142.3 116.232C142.3 115.034 138.562 107.715 133.889 99.7307C122.54 80.3019 121.873 80.1689 106.118 96.5369C82.2191 121.156 65.3963 152.428 57.3855 186.495C53.7806 201.399 53.7806 241.454 57.252 257.423C65.3963 294.284 84.4889 331.279 107.587 355.232C115.731 363.483 118.268 365.346 120.271 364.68C127.48 362.019 126.412 357.761 115.731 346.05C93.8349 322.23 76.8786 289.095 69.5353 255.959C66.1974 241.321 65.5299 211.779 68.0666 196.475C71.9385 172.655 80.617 151.097 94.903 130.072C103.314 117.563 117.467 100.662 119.603 100.662C120.137 100.662 122.273 103.856 124.41 107.848L128.148 115.034L120.538 123.285C104.65 140.318 92.6332 162.675 86.4916 186.362C81.6851 205.125 81.6851 205.125 102.246 203.794C110.658 203.262 118.535 202.33 119.737 201.665C120.938 201.133 122.674 197.673 123.475 194.213C125.344 186.628 134.29 167.199 135.892 167.199C136.426 167.199 147.508 175.45 160.325 185.43L183.69 203.661V225.219V246.91L161.527 266.871C149.377 277.916 138.963 286.965 138.295 286.965C137.36 286.965 127.614 263.411 127.614 261.016C127.614 260.218 132.554 258.221 138.696 256.491C156.052 251.568 158.322 250.37 158.322 246.245C158.322 240.256 154.05 217.235 152.715 215.372C150.712 212.976 147.107 213.243 114.396 218.699C95.5705 221.759 83.8213 224.288 82.6197 225.485C80.3499 227.881 80.884 236.131 85.0229 257.157C91.2981 290.425 100.778 309.189 128.282 343.255L139.897 357.761L135.491 362.551C123.208 375.859 118.936 380.117 117.333 380.117C114.663 380.117 89.0283 354.034 80.7505 342.856C63.2601 319.302 51.9114 296.014 43.9006 267.67C41.0968 257.822 40.4292 251.701 39.8951 233.071C39.094 207.387 40.9632 190.354 47.639 164.005C49.7752 155.222 51.2438 146.972 50.8433 145.774C50.0422 143.512 47.6389 142.58 28.5464 137.124C25.4756 136.193 25.4756 135.927 30.1486 124.482C53.7806 67.6599 111.058 24.1449 176.614 13.499C190.499 11.2367 219.472 11.9021 233.891 14.6966ZM270.741 93.6093C283.291 102.525 302.384 121.954 310.395 133.798C318.539 145.641 325.883 162.009 329.354 175.716C331.757 185.164 332.024 187.559 330.555 188.491C327.885 190.088 318.272 191.418 317.204 190.221C316.67 189.688 315.468 186.096 314.534 182.503C312.264 173.32 302.651 153.226 295.975 143.512C288.499 132.467 275.281 119.559 263.264 111.574C257.79 107.981 252.583 104.654 251.515 104.388C250.18 103.856 250.848 101.594 254.052 94.807C256.455 90.0163 258.858 86.0241 259.259 86.0241C259.793 86.0241 264.867 89.484 270.741 93.6093ZM30.2821 150.033C32.8189 150.831 35.4892 151.629 36.4238 151.896C37.4919 152.295 37.2248 155.089 35.3556 162.142C26.6772 194.479 24.541 235.2 30.0151 261.282C38.293 300.539 58.4536 338.465 88.2273 370.536C98.5079 381.581 115.064 394.755 118.668 394.755C123.074 394.755 154.317 362.285 154.317 357.627C154.317 356.43 150.578 350.841 146.039 345.518C129.483 325.956 115.331 305.995 109.456 294.151C103.181 281.243 96.2381 257.157 94.7695 242.652L93.9684 234.135L116.399 230.542C128.816 228.679 139.897 227.082 141.232 227.082C142.835 227.082 143.636 228.812 144.303 233.736C145.371 241.454 144.837 242.519 140.031 243.716C137.895 244.116 131.352 245.979 125.344 247.842C111.325 252.1 111.058 252.898 117.734 270.464C129.75 302.535 143.235 323.827 167.268 348.445C172.742 354.168 177.014 359.624 176.614 360.555C176.347 361.487 164.998 374.395 151.646 389.432C138.162 404.469 127.08 416.978 126.813 417.244C126.145 417.91 107.854 405.534 98.9084 398.215C54.9822 362.551 25.6091 315.576 15.3285 264.609C11.9907 247.576 10.6555 215.771 12.6582 197.806C14.1269 184.898 20.2685 151.896 21.7372 149.5C22.5383 148.17 24.9415 148.303 30.2821 150.033ZM202.382 166.667C204.919 169.461 204.518 176.248 201.981 178.91C199.845 180.906 199.578 180.906 197.442 178.91C193.837 175.183 195.439 164.538 199.712 164.538C200.246 164.538 201.447 165.469 202.382 166.667ZM205.052 225.751V244.382H200.379H195.706V225.751V207.121H200.379H205.052V225.751Z" fill="#202020"/>
<path d="M182.087 60.873C171.139 62.3368 148.575 69.3897 146.305 72.0512C144.169 74.7126 145.638 80.3017 148.842 81.3663C150.177 81.7656 154.316 80.9671 157.788 79.5033C175.812 72.4504 199.444 70.4543 221.34 73.9142C233.757 75.9103 237.095 75.1119 237.095 70.0551C237.095 65.6636 232.422 63.4014 218.937 61.4053C204.518 59.2761 195.839 59.143 182.087 60.873Z" fill="#202020"/>
<path d="M186.36 283.24C180.485 290.026 175.679 296.68 175.679 298.277C175.679 300.805 194.104 323.827 197.976 325.956C199.044 326.622 200.646 326.755 201.714 326.356C204.651 325.291 225.079 301.205 225.079 298.942C225.079 297.745 220.139 290.958 214.264 283.905C206.253 274.324 202.515 270.997 200.245 270.997C197.976 270.997 194.104 274.324 186.36 283.24ZM205.586 292.555C208.256 295.616 210.392 298.41 210.392 298.809C210.259 299.208 207.989 302.136 205.185 305.33L200.112 311.052L195.305 305.064C192.635 301.87 190.365 298.809 190.365 298.277C190.365 297.079 198.91 286.966 199.978 286.966C200.379 286.966 203.049 289.494 205.586 292.555Z" fill="#202020"/>
<path d="M177.548 408.728C166.6 420.837 157.521 431.616 157.254 432.681C156.987 433.612 157.521 435.742 158.322 437.205C159.657 439.867 160.725 440 200.112 440C242.703 440 243.771 439.867 243.771 434.012C243.771 429.62 204.385 386.771 200.379 386.771C198.109 386.771 192.235 392.493 177.548 408.728ZM211.327 415.115L220.94 426.027L210.259 426.426C204.385 426.693 195.172 426.693 189.698 426.426L179.818 426.027L189.831 414.982C195.439 408.994 200.379 404.07 200.78 404.203C201.314 404.203 205.987 409.127 211.327 415.115Z" fill="#202020"/>
</svg>
