<svg width="48" height="48" viewBox="0 0 48 48" fill="none" xmlns="http://www.w3.org/2000/svg">
<g filter="url(#filter0_d_1149_1993)">
<path d="M22 4C12.0591 4 4 12.0583 4 22C4 31.9417 12.0591 40 22 40C31.9409 40 40 31.9417 40 22C40 12.0583 31.9409 4 22 4ZM30.7818 29.9481C30.4927 30.46 29.9609 30.748 29.4127 30.748C29.1564 30.748 28.8918 30.6839 28.6491 30.5489C26.4018 29.2889 23.9527 28.5171 21.3646 28.255C18.7709 27.9951 16.21 28.2583 13.75 29.0437C12.9291 29.3058 12.0455 28.8523 11.7836 28.03C11.5191 27.2064 11.9745 26.3257 12.7982 26.0623C15.6673 25.1456 18.6591 24.8339 21.6809 25.141C24.6973 25.4481 27.5555 26.3481 30.1791 27.8186C30.9345 28.2392 31.2045 29.1932 30.7818 29.9481ZM32.9364 24.4807C32.6582 25.0161 32.1127 25.3232 31.5482 25.3232C31.3027 25.3232 31.0573 25.267 30.8255 25.1456C28.0627 23.7067 25.0791 22.8157 21.9509 22.4983C18.7982 22.1756 15.6755 22.4568 12.6646 23.3252C11.8327 23.5614 10.9655 23.0857 10.7282 22.2542C10.4882 21.424 10.9682 20.5567 11.7973 20.317C15.1954 19.3371 18.7191 19.0232 22.2673 19.3832C25.7909 19.7421 29.1564 20.7457 32.2736 22.3701C33.0373 22.7696 33.3373 23.7144 32.9364 24.4807ZM33.7164 19.9322C33.4818 19.9322 33.2446 19.8793 33.0182 19.768C29.74 18.1333 26.2136 17.1152 22.5345 16.7418C18.85 16.3649 15.1845 16.6562 11.6364 17.6036C10.8018 17.8251 9.94545 17.3301 9.72181 16.4942C9.49818 15.6594 9.99456 14.8011 10.8318 14.5783C14.7455 13.5332 18.7927 13.2149 22.8536 13.6278C26.9091 14.0383 30.7982 15.1622 34.4146 16.9657C35.1891 17.3514 35.5027 18.292 35.1182 19.0649C34.8454 19.615 34.2918 19.9322 33.7164 19.9322Z" fill="#D08742"/>
</g>
<defs>
<filter id="filter0_d_1149_1993" x="0" y="0" width="48" height="48" filterUnits="userSpaceOnUse" color-interpolation-filters="sRGB">
<feFlood flood-opacity="0" result="BackgroundImageFix"/>
<feColorMatrix in="SourceAlpha" type="matrix" values="0 0 0 0 0 0 0 0 0 0 0 0 0 0 0 0 0 0 127 0" result="hardAlpha"/>
<feOffset dx="2" dy="2"/>
<feGaussianBlur stdDeviation="3"/>
<feComposite in2="hardAlpha" operator="out"/>
<feColorMatrix type="matrix" values="0 0 0 0 0.12549 0 0 0 0 0.12549 0 0 0 0 0.12549 0 0 0 0.25 0"/>
<feBlend mode="normal" in2="BackgroundImageFix" result="effect1_dropShadow_1149_1993"/>
<feBlend mode="normal" in="SourceGraphic" in2="effect1_dropShadow_1149_1993" result="shape"/>
</filter>
</defs>
</svg>
