<svg width="48" height="44" viewBox="0 0 48 44" fill="none" xmlns="http://www.w3.org/2000/svg">
<g filter="url(#filter0_d_1149_1867)">
<path d="M15.3252 35.6251C28.9068 35.6251 36.3374 24.3702 36.3374 14.6129C36.3374 14.2965 36.3304 13.9731 36.3163 13.6567C37.7618 12.6113 39.0092 11.3165 40 9.83307C38.6538 10.432 37.2245 10.8232 35.7609 10.9932C37.3019 10.0695 38.4558 8.61833 39.0086 6.90877C37.5588 7.76796 35.9734 8.37404 34.3202 8.70104C33.2063 7.51746 31.7335 6.7338 30.1295 6.4712C28.5256 6.2086 26.8798 6.4817 25.4466 7.24827C24.0134 8.01484 22.8727 9.23218 22.2008 10.7121C21.5288 12.192 21.3631 13.852 21.7293 15.4356C18.7937 15.2883 15.9219 14.5257 13.3 13.1973C10.678 11.8689 8.36454 10.0043 6.50945 7.7244C5.5666 9.34999 5.27808 11.2736 5.70255 13.1043C6.12701 14.9349 7.23259 16.5353 8.79461 17.5801C7.62194 17.5429 6.47496 17.2271 5.44844 16.659V16.7504C5.44739 18.4563 6.03715 20.11 7.11746 21.4303C8.19778 22.7506 9.70199 23.656 11.3744 23.9926C10.2881 24.2898 9.14797 24.3331 8.04227 24.1192C8.51418 25.5863 9.43236 26.8695 10.6687 27.7896C11.905 28.7098 13.3977 29.221 14.9385 29.252C12.3226 31.3068 9.09126 32.4213 5.76484 32.416C5.17493 32.4151 4.5856 32.379 4 32.3078C7.37928 34.4757 11.3103 35.6272 15.3252 35.6251Z" fill="#D08742"/>
</g>
<defs>
<filter id="filter0_d_1149_1867" x="0" y="2.37402" width="48" height="41.251" filterUnits="userSpaceOnUse" color-interpolation-filters="sRGB">
<feFlood flood-opacity="0" result="BackgroundImageFix"/>
<feColorMatrix in="SourceAlpha" type="matrix" values="0 0 0 0 0 0 0 0 0 0 0 0 0 0 0 0 0 0 127 0" result="hardAlpha"/>
<feOffset dx="2" dy="2"/>
<feGaussianBlur stdDeviation="3"/>
<feComposite in2="hardAlpha" operator="out"/>
<feColorMatrix type="matrix" values="0 0 0 0 0.12549 0 0 0 0 0.12549 0 0 0 0 0.12549 0 0 0 0.25 0"/>
<feBlend mode="normal" in2="BackgroundImageFix" result="effect1_dropShadow_1149_1867"/>
<feBlend mode="normal" in="SourceGraphic" in2="effect1_dropShadow_1149_1867" result="shape"/>
</filter>
</defs>
</svg>
