<svg width="50" height="42" viewBox="0 0 50 42" fill="none" xmlns="http://www.w3.org/2000/svg">
<g filter="url(#filter0_d_1149_2056)">
<path d="M14.3913 9H5V9.78261C5 9.78261 6.17391 9.78261 7.34783 10.1739C8.52174 10.5652 18.6957 32.4783 18.6957 32.4783H19.4783L23.7826 23.087L28.087 32.4783H28.8696C28.8696 32.4783 37.087 12.1304 38.6522 10.5652C39.5795 9.63785 41 9.78261 41 9.78261V9H33.1739V9.78261C33.1739 9.78261 35.5958 9.61345 35.913 10.5652C36.6957 12.913 29.2609 27 29.2609 27L25.7391 19.5652C25.7391 19.5652 28.6651 12.335 30.8261 10.1739C31.2174 9.78258 32.3913 9.78261 32.3913 9.78261V9H25.3478V9.78261C25.3478 9.78261 27.2846 9.53758 27.6957 10.5652C28.4783 12.5217 24.9565 17.6087 24.9565 17.6087C24.9565 17.6087 21.9518 11.6276 22.2174 10.5652C22.483 9.50275 24.5652 9.78261 24.5652 9.78261V9H15.1739V9.78261C15.1739 9.78261 17.0605 9.27724 18.3043 10.9565C19.5482 12.6358 23 21.1304 23 21.1304L19.8696 27C19.8696 27 12.0435 12.5806 12.0435 10.9565C12.0435 9.33244 14.3913 9.78261 14.3913 9.78261L14.3913 9.39128L14.3913 9Z" fill="#D08742"/>
<path d="M14.3913 9H5V9.78261C5 9.78261 6.17391 9.78261 7.34783 10.1739C8.52174 10.5652 18.6957 32.4783 18.6957 32.4783H19.4783L23.7826 23.087L28.087 32.4783H28.8696C28.8696 32.4783 37.087 12.1304 38.6522 10.5652C39.5795 9.63785 41 9.78261 41 9.78261V9H33.1739V9.78261C33.1739 9.78261 35.5958 9.61345 35.913 10.5652C36.6957 12.913 29.2609 27 29.2609 27L25.7391 19.5652C25.7391 19.5652 28.6651 12.335 30.8261 10.1739C31.2174 9.78258 32.3913 9.78261 32.3913 9.78261V9H25.3478V9.78261C25.3478 9.78261 27.2846 9.53758 27.6957 10.5652C28.4783 12.5217 24.9565 17.6087 24.9565 17.6087C24.9565 17.6087 21.9518 11.6276 22.2174 10.5652C22.483 9.50275 24.5652 9.78261 24.5652 9.78261V9H15.1739V9.78261C15.1739 9.78261 17.0605 9.27724 18.3043 10.9565C19.5482 12.6358 23 21.1304 23 21.1304L19.8696 27C19.8696 27 12.0435 12.5806 12.0435 10.9565C12.0435 9.33244 14.3913 9.78261 14.3913 9.78261L14.3913 9.39128L14.3913 9Z" stroke="#D08742" stroke-width="0.391304"/>
</g>
<defs>
<filter id="filter0_d_1149_2056" x="0.804688" y="4.80444" width="48.3906" height="35.8694" filterUnits="userSpaceOnUse" color-interpolation-filters="sRGB">
<feFlood flood-opacity="0" result="BackgroundImageFix"/>
<feColorMatrix in="SourceAlpha" type="matrix" values="0 0 0 0 0 0 0 0 0 0 0 0 0 0 0 0 0 0 127 0" result="hardAlpha"/>
<feOffset dx="2" dy="2"/>
<feGaussianBlur stdDeviation="3"/>
<feComposite in2="hardAlpha" operator="out"/>
<feColorMatrix type="matrix" values="0 0 0 0 0.12549 0 0 0 0 0.12549 0 0 0 0 0.12549 0 0 0 0.25 0"/>
<feBlend mode="normal" in2="BackgroundImageFix" result="effect1_dropShadow_1149_2056"/>
<feBlend mode="normal" in="SourceGraphic" in2="effect1_dropShadow_1149_2056" result="shape"/>
</filter>
</defs>
</svg>
